custom-analysis
version=1
nRows=6
nColumns=98
inDegrees=no

This file contains tibia displacement and acting force.

Units are S.I. units (seconds, meters, Newtons, ...)
Angles are in degrees.

endheader
time	APT	SIT	knee_angle	aACL_R_force	pACL_R_force	aPCL_R_force	pPCL_R_force	aMCL_R_force	mMCL_R_force	pMCL_R_force	aLCL_R_force	mLCL_R_force	pLCL_R_force	aPCL_L_force	pPCL_L_force	aMCL_L_force	aLCL_L_force	aACL_R_length	pACL_R_length	aPCL_R_length	pPCL_R_length	aMCL_R_length	mMCL_R_length	pMCL_R_length	aLCL_R_length	mLCL_R_length	pLCL_R_length	aPCL_L_length	pPCL_L_length	aMCL_L_length	aLCL_L_length	aACL_R_strain	pACL_R_strain	aPCL_R_strain	pPCL_R_strain	aMCL_R_strain	mMCL_R_strain	pMCL_R_strain	aLCL_R_strain	mLCL_R_strain	pLCL_R_strain	aPCL_L_strain	pPCL_L_strain	aMCL_L_strain	aLCL_L_strain	femur_lat_meniscii_r.femur_lat_r.force.X	femur_lat_meniscii_r.femur_lat_r.force.Y	femur_lat_meniscii_r.femur_lat_r.force.Z	femur_lat_meniscii_r.femur_lat_r.torque.X	femur_lat_meniscii_r.femur_lat_r.torque.Y	femur_lat_meniscii_r.femur_lat_r.torque.Z	femur_lat_meniscii_r.meniscus_lat_r.force.X	femur_lat_meniscii_r.meniscus_lat_r.force.Y	femur_lat_meniscii_r.meniscus_lat_r.force.Z	femur_lat_meniscii_r.meniscus_lat_r.torque.X	femur_lat_meniscii_r.meniscus_lat_r.torque.Y	femur_lat_meniscii_r.meniscus_lat_r.torque.Z	femur_med_meniscii_r.femur_med_r.force.X	femur_med_meniscii_r.femur_med_r.force.Y	femur_med_meniscii_r.femur_med_r.force.Z	femur_med_meniscii_r.femur_med_r.torque.X	femur_med_meniscii_r.femur_med_r.torque.Y	femur_med_meniscii_r.femur_med_r.torque.Z	femur_med_meniscii_r.meniscus_med_r.force.X	femur_med_meniscii_r.meniscus_med_r.force.Y	femur_med_meniscii_r.meniscus_med_r.force.Z	femur_med_meniscii_r.meniscus_med_r.torque.X	femur_med_meniscii_r.meniscus_med_r.torque.Y	femur_med_meniscii_r.meniscus_med_r.torque.Z	femur_med_tibia_r.tibia_upper_r.force.X	femur_med_tibia_r.tibia_upper_r.force.Y	femur_med_tibia_r.tibia_upper_r.force.Z	femur_med_tibia_r.tibia_upper_r.torque.X	femur_med_tibia_r.tibia_upper_r.torque.Y	femur_med_tibia_r.tibia_upper_r.torque.Z	femur_med_tibia_r.femur_med_r.force.X	femur_med_tibia_r.femur_med_r.force.Y	femur_med_tibia_r.femur_med_r.force.Z	femur_med_tibia_r.femur_med_r.torque.X	femur_med_tibia_r.femur_med_r.torque.Y	femur_med_tibia_r.femur_med_r.torque.Z	femur_lat_tibia_r.tibia_upper_r.force.X	femur_lat_tibia_r.tibia_upper_r.force.Y	femur_lat_tibia_r.tibia_upper_r.force.Z	femur_lat_tibia_r.tibia_upper_r.torque.X	femur_lat_tibia_r.tibia_upper_r.torque.Y	femur_lat_tibia_r.tibia_upper_r.torque.Z	femur_lat_tibia_r.femur_lat_r.force.X	femur_lat_tibia_r.femur_lat_r.force.Y	femur_lat_tibia_r.femur_lat_r.force.Z	femur_lat_tibia_r.femur_lat_r.torque.X	femur_lat_tibia_r.femur_lat_r.torque.Y	femur_lat_tibia_r.femur_lat_r.torque.Z	femur_lat_meniscii_force_r	femur_med_meniscii_force_r	femur_lat_tibia_force_r	femur_med_tibia_force_r
      0.20773911	      0.01356132	      0.02581905	     80.42177783	      1.36841209	      0.00000000	    951.65165468	    600.24858406	     24.43105013	      9.70835910	      0.00000000	      0.00000000	      0.00000000	      0.00000000	      0.00000000	      0.00000000	      0.00000001	      0.00000000	      0.03103277	      0.02439143	      0.03709362	      0.03389567	      0.06143422	      0.05990354	      0.05653938	      0.05022592	      0.04480156	      0.03979141	      0.01525851	      0.01651186	      0.06550154	      0.04489616	      0.00087940	     -0.02662842	      0.19290119	      0.13409724	      0.02344309	      0.00184038	     -0.03726704	     -0.10274318	     -0.20449795	     -0.23979057	      0.00000079	     -0.32847694	      0.00000060	     -0.00000086	    155.04940390	     93.30487204	      7.91969747	     -5.28727657	      3.59906865	     61.61551710	   -155.04940390	    -93.30487204	     -7.91969747	      2.41165204	     -4.21948077	      1.99188010	      0.06847100	      0.00223754	     -0.04439338	      0.01769344	     -0.00107306	      0.02723058	     -0.06847100	     -0.00223754	      0.04439338	     -0.00019559	      0.00208970	     -0.00019119	   -885.48740298	   -378.58091485	    315.24824589	     -8.59322447	     21.71517171	      2.15474130	    885.48740298	    378.58091485	   -315.24824589	    133.80174337	    -15.54375162	    356.94939195	   -304.71405450	   -141.76053032	    -83.30187695	      4.61580165	    -10.51956675	      1.02070923	    304.71405450	    141.76053032	     83.30187695	    -37.06648712	      7.47481485	    122.86372125	    181.13210208	      0.08163368	    346.24544137	   1013.30790309
      0.20827236	      0.01354406	      0.02592283	     80.71413890	      1.05720778	      0.00000000	    955.76085438	    603.13707867	     24.15223875	      9.52887219	      0.00000000	      0.00000000	      0.00000000	      0.00000000	      0.00000000	      0.00000000	      0.00000001	      0.00000000	      0.03103421	      0.02440688	      0.03711684	      0.03391388	      0.06144926	      0.05991056	      0.05654976	      0.05019807	      0.04476934	      0.03976334	      0.01525851	      0.01651186	      0.06550154	      0.04489616	      0.00092606	     -0.02601178	      0.19364781	      0.13470639	      0.02369371	      0.00195777	     -0.03709024	     -0.10324080	     -0.20507002	     -0.24032693	      0.00000079	     -0.32847694	      0.00000060	     -0.00000086	    154.20988350	     93.63557304	      8.30774605	     -5.45152988	      3.57974930	     61.25766261	   -154.20988350	    -93.63557304	     -8.30774605	      2.42420583	     -4.21090117	      2.04970776	      0.06234778	      0.00330734	     -0.03768068	      0.01502728	     -0.00095566	      0.02477841	     -0.06234778	     -0.00330734	      0.03768068	     -0.00016743	      0.00180870	     -0.00011592	   -889.67874472	   -376.52180866	    315.84433717	     -8.51241184	     21.77904637	      2.20909764	    889.67874472	    376.52180866	   -315.84433717	    133.98971544	    -15.59716688	    358.60820696	   -304.94896112	   -139.48850838	    -83.30544286	      4.54813856	    -10.53414157	      0.98972011	    304.94896112	    139.48850838	     83.30544286	    -37.01341144	      7.48013273	    122.96677085	    180.60267814	      0.07292474	    345.52960752	   1016.39292920
      0.20883578	      0.01352503	      0.02603241	     81.02296316	      0.95560198	      0.00000000	    960.00554679	    605.88109727	     23.97920679	      9.38980259	      0.00000000	      0.00000000	      0.00000000	      0.00000000	      0.00000000	      0.00000000	      0.00000001	      0.00000000	      0.03103530	      0.02442293	      0.03714137	      0.03393316	      0.06146488	      0.05991784	      0.05656082	      0.05016878	      0.04473560	      0.03973425	      0.01525851	      0.01651186	      0.06550154	      0.04489616	      0.00096112	     -0.02537103	      0.19443674	      0.13535162	      0.02395392	      0.00207947	     -0.03690195	     -0.10376405	     -0.20566912	     -0.24088275	      0.00000079	     -0.32847694	      0.00000060	     -0.00000086	    154.77929725	     93.86177475	      9.11735212	     -5.78516667	      3.60496775	     61.47867031	   -154.77929725	    -93.86177475	     -9.11735212	      2.43956725	     -4.26208850	      2.08233288	      0.05251878	      0.00083100	     -0.03299615	      0.01313500	     -0.00081695	      0.02088522	     -0.05251878	     -0.00083100	      0.03299615	     -0.00012420	      0.00157057	     -0.00015742	   -893.45627330	   -372.06270533	    316.49669917	     -8.39464515	     21.84233923	      2.18636628	    893.45627330	    372.06270533	   -316.49669917	    134.15867680	    -15.64691777	    360.12309414	   -305.74929907	   -138.75239189	    -83.74106660	      4.52333243	    -10.57951817	      1.01681541	    305.74929907	    138.75239189	     83.74106660	    -37.16998808	      7.50276336	    123.27822402	    181.24510953	      0.06202950	    346.04541085	   1018.26564785
      0.20939919	      0.01350574	      0.02614189	     81.33181154	      0.08069562	      0.00000000	    964.61072563	    609.86984072	     23.33794257	      9.07434401	      0.00000000	      0.00000000	      0.00000000	      0.00000000	      0.00000000	      0.00000000	      0.00000001	      0.00000000	      0.03103635	      0.02443901	      0.03716570	      0.03395225	      0.06148031	      0.05992500	      0.05657194	      0.05013963	      0.04470214	      0.03970564	      0.01525851	      0.01651186	      0.06550154	      0.04489616	      0.00099506	     -0.02472954	      0.19521906	      0.13599014	      0.02421089	      0.00219920	     -0.03671258	     -0.10428485	     -0.20626328	     -0.24142928	      0.00000079	     -0.32847694	      0.00000060	     -0.00000086	    152.90563837	     95.54098118	      9.49681192	     -5.97770049	      3.56231305	     60.68419752	   -152.90563837	    -95.54098118	     -9.49681192	      2.48711849	     -4.22728629	      2.20657783	      0.04865768	      0.00115913	     -0.03046884	      0.01213136	     -0.00075589	      0.01934399	     -0.04865768	     -0.00115913	      0.03046884	     -0.00011254	      0.00145243	     -0.00012385	   -897.43435244	   -372.73644219	    317.20330967	     -8.33447624	     21.90357097	      2.35451278	    897.43435244	    372.73644219	   -317.20330967	    134.42042069	    -15.69363477	    361.66605043	   -306.27167038	   -138.37384477	    -84.16486279	      4.50552679	    -10.61802245	      1.06429449	    306.27167038	    138.37384477	     84.16486279	    -37.32815632	      7.51964776	    123.46956969	    180.55027767	      0.05742181	    346.45833966	   1022.22248652
      0.20943875	      0.01350428	      0.02614957	     81.35348269	      0.23459545	      0.00000000	    964.82819795	    609.80455934	     23.40688646	      9.09043296	      0.00000000	      0.00000000	      0.00000000	      0.00000000	      0.00000000	      0.00000000	      0.00000001	      0.00000000	      0.03103637	      0.02444011	      0.03716743	      0.03395362	      0.06148137	      0.05992549	      0.05657273	      0.05013758	      0.04469980	      0.03970366	      0.01525851	      0.01651186	      0.06550154	      0.04489616	      0.00099556	     -0.02468581	      0.19527477	      0.13603602	      0.02422854	      0.00220743	     -0.03669921	     -0.10432137	     -0.20630479	     -0.24146708	      0.00000079	     -0.32847694	      0.00000060	     -0.00000086	    152.95963239	     95.00979666	      9.52665857	     -5.97795154	      3.56350628	     60.71101722	   -152.95963239	    -95.00979666	     -9.52665857	      2.47419423	     -4.22960999	      2.18824620	      0.04854809	      0.00109480	     -0.03037928	      0.01209498	     -0.00075400	      0.01930079	     -0.04854809	     -0.00109480	      0.03037928	     -0.00011140	      0.00144848	     -0.00012522	   -897.80150538	   -371.50053181	    317.66849897	     -8.32240357	     21.92463281	      2.31611421	    897.80150538	    371.50053181	   -317.66849897	    134.59139693	    -15.70264217	    361.82438299	   -306.31681485	   -138.12524175	    -84.15685720	      4.49848188	    -10.61939752	      1.05854293	    306.31681485	    138.12524175	     84.15685720	    -37.31916572	      7.52051046	    123.48938115	    180.31713126	      0.05728015	    346.39709884	   1022.23943548
      0.20945689	      0.01350362	      0.02615310	     81.36341818	     -0.40161456	      0.00000000	    966.83527152	    615.03712345	     25.32667498	     11.44928655	      0.00000000	      0.00000000	      0.00000000	      0.00000000	      0.00000000	      0.00000000	      0.00000001	      0.00000000	      0.03103638	      0.02444061	      0.03716822	      0.03395424	      0.06148185	      0.05992572	      0.05657309	      0.05013665	      0.04469873	      0.03970275	      0.01525851	      0.01651186	      0.06550154	      0.04489616	      0.00099594	     -0.02466564	      0.19530020	      0.13605693	      0.02423664	      0.00221121	     -0.03669308	     -0.10433810	     -0.20632382	     -0.24148441	      0.00000079	     -0.32847694	      0.00000060	     -0.00000086	    145.21753976	     95.07715326	     11.52701929	     -6.78936986	      3.40455208	     57.57492899	   -145.21753976	    -95.07715326	    -11.52701929	      2.49690866	     -4.10434970	      2.27362353	      0.04551759	      0.00129821	     -0.02855995	      0.01137332	     -0.00070760	      0.01809356	     -0.04551759	     -0.00129821	      0.02855995	     -0.00010658	      0.00136085	     -0.00010744	   -894.51180170	   -375.43719002	    314.69395080	     -8.32313685	     21.77441620	      2.51715233	    894.51180170	    375.43719002	   -314.69395080	    133.43087197	    -15.62413860	    360.43672144	   -304.87817473	   -139.78348231	    -85.25807178	      4.55325325	    -10.62999395	      1.14853014	    304.87817473	    139.78348231	     85.25807178	    -37.80405782	      7.50479610	    122.87838513	    173.95594586	      0.05375134	    346.06222296	   1019.87093777
